<svg width="20" height="21" viewBox="0 0 20 21" fill="none" xmlns="http://www.w3.org/2000/svg">
<path d="M19.947 7.44902C19.818 7.07102 19.477 6.80402 19.079 6.77302L13.378 6.32002L10.911 0.85902C10.75 0.50002 10.393 0.27002 9.99997 0.27002C9.60697 0.27002 9.24997 0.50002 9.08897 0.85802L6.62197 6.32002L0.920971 6.77302C0.529971 6.80402 0.192971 7.06102 0.0599712 7.43002C-0.0730288 7.79902 0.0209713 8.21202 0.301971 8.48602L4.51497 12.593L3.02497 19.045C2.93297 19.444 3.09397 19.859 3.43097 20.092C3.60297 20.21 3.80097 20.27 3.99997 20.27C4.19297 20.27 4.38697 20.214 4.55497 20.102L9.99997 16.472L15.445 20.102C15.793 20.334 16.25 20.325 16.59 20.078C16.928 19.831 17.077 19.398 16.962 18.996L15.133 12.596L19.669 8.51402C19.966 8.24602 20.075 7.82802 19.947 7.44902Z" fill="#FFB700"/>
</svg>
