<svg width="37" height="36" viewBox="0 0 37 36" fill="none" xmlns="http://www.w3.org/2000/svg">
<path d="M26.4665 21.39C26.3459 21.5136 26.2537 21.662 26.1965 21.825C26.1587 21.9979 26.1587 22.177 26.1965 22.35L27.0815 28.245C27.1604 28.705 27.1084 29.178 26.9315 29.61C26.7518 30.0464 26.4496 30.4215 26.0615 30.69C25.6767 30.9604 25.2256 31.1211 24.7565 31.155C24.2892 31.1741 23.8261 31.0597 23.4215 30.825L18.6365 28.17C18.4763 28.0798 18.2953 28.0333 18.1115 28.035C17.9229 28.0334 17.7371 28.0799 17.5715 28.17L12.8165 30.825C12.4021 31.047 11.9364 31.1557 11.4665 31.14C11.1186 31.1172 10.7794 31.0221 10.4704 30.8607C10.1614 30.6993 9.88946 30.4752 9.67204 30.2027C9.45461 29.9302 9.29646 29.6154 9.20768 29.2783C9.11891 28.9411 9.10147 28.5892 9.15649 28.245L10.1165 22.35C10.1616 22.1779 10.1616 21.9971 10.1165 21.825C10.0705 21.6604 9.98261 21.5105 9.86149 21.39L5.64649 17.145C5.33192 16.8129 5.10957 16.4044 5.00149 15.96C4.88167 15.518 4.88167 15.052 5.00149 14.61C5.16749 14.1743 5.44719 13.791 5.81149 13.5C6.16335 13.2037 6.58801 13.0069 7.04149 12.93L12.5765 12.09C12.7551 12.0578 12.9242 11.9861 13.0715 11.88C13.2175 11.7686 13.3356 11.6248 13.4165 11.46L15.8165 6.29998C16.0154 5.87007 16.3328 5.50582 16.7315 5.24998C17.1329 4.99517 17.5985 4.85986 18.074 4.85986C18.5494 4.85986 19.0151 4.99517 19.4165 5.24998C19.8152 5.50582 20.1326 5.87007 20.3315 6.29998L22.7465 11.46C22.8226 11.6278 22.9416 11.7727 23.0915 11.88C23.2371 11.989 23.4069 12.061 23.5865 12.09L29.1215 12.93C29.575 13.0069 29.9996 13.2037 30.3515 13.5C30.696 13.8026 30.9546 14.1906 31.1015 14.625C31.2213 15.067 31.2213 15.533 31.1015 15.975C30.9934 16.4194 30.7711 16.8279 30.4565 17.16L26.4665 21.39Z" fill="#1B1B1D"/>
</svg>
